<svg width="1200" height="700" viewBox="0 0 1200 700" fill="none" xmlns="http://www.w3.org/2000/svg" role="img" aria-label="use-figma open source logo">
  <defs>
    <linearGradient id="bg" x1="100" y1="50" x2="1100" y2="650" gradientUnits="userSpaceOnUse">
      <stop stop-color="#0F172A"/>
      <stop offset="1" stop-color="#1E293B"/>
    </linearGradient>
    <linearGradient id="chip" x1="0" y1="0" x2="1" y2="1">
      <stop stop-color="#2563EB"/>
      <stop offset="1" stop-color="#06B6D4"/>
    </linearGradient>
  </defs>

  <rect x="0" y="0" width="1200" height="700" rx="36" fill="url(#bg)"/>
  <circle cx="1040" cy="90" r="120" fill="#1E40AF" fill-opacity="0.2"/>
  <circle cx="80" cy="640" r="170" fill="#0EA5E9" fill-opacity="0.16"/>

  <rect x="88" y="90" width="460" height="520" rx="30" fill="#111827" stroke="#334155" stroke-width="2"/>

  <rect x="162" y="146" width="120" height="120" rx="60" fill="#F24E1E"/>
  <rect x="282" y="146" width="120" height="120" rx="60" fill="#FF7262"/>
  <rect x="162" y="266" width="120" height="120" rx="60" fill="#A259FF"/>
  <rect x="282" y="266" width="120" height="120" rx="60" fill="#1ABCFE"/>
  <rect x="162" y="386" width="120" height="120" rx="60" fill="#0ACF83"/>

  <rect x="614" y="244" width="360" height="82" rx="41" fill="url(#chip)"/>
  <text x="670" y="297" fill="#F8FAFC" font-family="Inter, Arial, sans-serif" font-size="46" font-weight="700">use-figma</text>

  <text x="614" y="400" fill="#E2E8F0" font-family="Inter, Arial, sans-serif" font-size="56" font-weight="700">Figma to UI</text>
  <text x="614" y="462" fill="#94A3B8" font-family="Inter, Arial, sans-serif" font-size="34" font-weight="500">Open-source conversion workflow</text>
</svg>
